<svg width="34" height="34" viewBox="0 0 34 34" fill="none" xmlns="http://www.w3.org/2000/svg">
<rect x="33" y="0.5" width="32.5374" height="32" rx="16" transform="rotate(90 33 0.5)" stroke="#949494"/>
<path d="M18.2207 13.2987C18.147 13.23 18.0879 13.1472 18.0469 13.0552C18.0059 12.9632 17.9838 12.8639 17.9821 12.7632C17.9803 12.6625 17.9988 12.5625 18.0365 12.4691C18.0743 12.3757 18.1304 12.2909 18.2016 12.2197C18.2728 12.1485 18.3577 12.0923 18.4511 12.0546C18.5445 12.0169 18.6445 11.9983 18.7452 12.0001C18.8459 12.0019 18.9452 12.0239 19.0372 12.0649C19.1292 12.1059 19.212 12.165 19.2807 12.2387L23.2807 16.2387C23.4211 16.3793 23.5 16.57 23.5 16.7687C23.5 16.9675 23.4211 17.1581 23.2807 17.2987L19.2807 21.2987C19.212 21.3724 19.1292 21.4315 19.0372 21.4725C18.9452 21.5135 18.8459 21.5355 18.7452 21.5373C18.6445 21.5391 18.5445 21.5206 18.4511 21.4828C18.3577 21.4451 18.2728 21.389 18.2016 21.3177C18.1304 21.2465 18.0743 21.1617 18.0365 21.0683C17.9988 20.9749 17.9803 20.8749 17.9821 20.7742C17.9838 20.6735 18.0059 20.5742 18.0469 20.4822C18.0879 20.3902 18.147 20.3074 18.2207 20.2387L20.9407 17.5187H11.2507C11.0517 17.5187 10.861 17.4397 10.7203 17.299C10.5797 17.1584 10.5007 16.9676 10.5007 16.7687C10.5007 16.5698 10.5797 16.379 10.7203 16.2384C10.861 16.0977 11.0517 16.0187 11.2507 16.0187H20.9407L18.2207 13.2987Z" fill="#555555"/>
</svg>
